<?xml version="1.0" standalone="no"?>
<!DOCTYPE svg PUBLIC "-//W3C//DTD SVG 20010904//EN"
 "http://www.w3.org/TR/2001/REC-SVG-20010904/DTD/svg10.dtd">
<svg version="1.0" xmlns="http://www.w3.org/2000/svg"
 width="500.000000pt" height="500.000000pt" viewBox="0 0 500.000000 500.000000"
 preserveAspectRatio="xMidYMid meet">
<g transform="translate(0.000000,500.000000) scale(0.100000,-0.100000)"
fill="#000000" stroke="none">
<path d="M2145 3964 c-321 -69 -587 -321 -683 -649 -98 -336 -9 -701 229 -933
73 -70 167 -141 188 -142 8 0 46 30 85 68 197 186 386 364 407 381 18 15 21
22 12 31 -9 10 -14 8 -24 -8 -9 -14 -17 -18 -24 -12 -8 7 -11 3 -11 -13 1 -12
-3 -22 -9 -22 -5 0 -16 -4 -23 -8 -8 -5 -11 -4 -10 4 2 6 -4 14 -12 16 -13 4
-13 3 0 -6 8 -6 11 -11 6 -11 -5 0 -3 -7 4 -16 11 -12 11 -15 -1 -12 -8 2 -13
-3 -11 -10 1 -8 -2 -11 -7 -7 -6 3 -15 -3 -21 -14 -8 -15 -18 -20 -40 -17 -17
2 -33 0 -35 -4 -3 -5 6 -7 20 -5 14 1 25 1 25 -1 0 -12 -105 -102 -113 -97 -6
3 -7 1 -3 -6 4 -6 0 -14 -8 -17 -9 -3 -13 -10 -10 -15 5 -8 -10 -13 -29 -10
-5 1 -6 -3 -3 -7 3 -5 -3 -17 -14 -27 -12 -10 -20 -13 -20 -7 0 7 5 12 11 12
6 0 9 5 7 11 -6 19 -23 10 -23 -13 0 -29 -23 -47 -55 -43 -19 2 -26 -2 -26
-15 0 -10 5 -16 10 -13 5 4 7 -1 3 -11 -4 -10 -7 -20 -7 -22 0 -3 -4 -3 -9 1
-6 3 -15 -4 -21 -15 -6 -11 -16 -20 -23 -20 -8 0 -7 4 3 11 12 9 12 10 -3 5
-10 -3 -25 1 -34 9 -8 8 -19 12 -25 9 -7 -4 -8 -2 -4 5 4 6 12 8 18 5 7 -5 8
-2 4 5 -5 7 -14 10 -22 7 -8 -3 -14 -1 -14 4 0 6 5 10 12 10 6 0 8 3 5 6 -4 4
-13 1 -21 -5 -13 -11 -15 -9 -11 9 3 17 1 19 -9 11 -10 -9 -15 -8 -20 4 -3 9
-11 13 -18 9 -8 -5 -9 -2 -5 9 3 9 3 16 -1 15 -16 -5 -52 24 -50 40 2 9 -1 17
-7 17 -20 1 -35 17 -71 78 -20 34 -39 64 -43 67 -11 9 -38 64 -45 93 -3 15
-11 27 -16 27 -13 0 -13 37 -1 44 5 4 7 -4 5 -16 -4 -21 -4 -21 5 -3 9 21 5
38 -8 30 -27 -16 -65 200 -56 315 4 41 8 78 11 82 3 4 7 30 10 59 3 29 9 60
15 71 5 10 8 22 5 26 -2 4 2 18 10 32 7 14 13 21 14 17 0 -5 -4 -16 -9 -26 -7
-13 -6 -18 3 -18 14 0 15 45 1 67 -6 9 -4 11 5 5 8 -5 11 -3 8 6 -2 7 4 22 14
33 10 11 18 28 18 38 0 22 16 23 28 2 8 -15 10 -15 15 0 4 10 3 14 -3 11 -5
-3 -14 3 -20 14 -8 16 -6 23 12 36 13 8 23 19 23 23 0 4 5 6 12 4 6 -1 14 2
18 8 3 6 0 7 -10 4 -15 -6 -9 11 22 65 2 2 9 -2 17 -8 13 -11 15 -9 11 7 -2
14 14 38 51 77 31 31 58 54 61 51 4 -3 0 -6 -7 -6 -7 0 -10 -3 -7 -6 4 -4 13
-1 21 5 16 13 36 7 36 -11 0 -6 -8 -7 -17 -3 -15 5 -16 4 -5 -6 9 -10 15 -10
23 -2 8 8 6 18 -6 37 -17 25 -12 32 18 27 5 -1 6 3 2 8 -3 6 6 13 20 17 14 3
22 11 18 17 -4 6 2 8 15 5 12 -4 20 -3 18 1 -7 11 61 44 78 38 9 -4 16 -2 16
4 0 6 7 8 16 5 8 -3 12 -2 9 4 -9 14 19 12 34 -2 9 -9 12 -9 7 -1 -3 6 -3 13
1 16 5 2 2 2 -5 0 -7 -1 -11 1 -8 6 3 4 40 14 83 22 61 11 198 14 633 13 305
-1 567 -3 583 -5 28 -3 35 -13 17 -24 -5 -3 -10 -11 -10 -18 0 -6 6 -2 14 8
12 17 16 17 30 6 9 -8 14 -16 12 -19 -3 -2 1 -17 9 -32 14 -27 16 -112 3 -103
-5 2 -8 0 -8 -5 0 -18 -42 -53 -57 -47 -13 5 -14 3 -3 -10 11 -13 11 -18 0
-28 -10 -10 -11 -9 -5 3 5 8 -7 -1 -25 -20 -19 -19 -33 -38 -32 -42 1 -5 -1
-7 -6 -5 -11 3 -62 -39 -62 -53 0 -6 -5 -8 -12 -4 -6 4 -8 3 -5 -2 7 -11 -141
-150 -155 -146 -5 1 -7 -2 -4 -6 7 -12 -28 -44 -39 -35 -4 5 -5 3 -2 -3 8 -14
-36 -57 -48 -47 -4 5 -5 3 -2 -3 7 -12 -28 -46 -38 -36 -4 4 -5 0 -3 -8 2 -8
-3 -14 -10 -12 -8 1 -11 -2 -7 -8 6 -9 -8 -14 -28 -11 -5 1 -6 -3 -3 -8 7 -11
-33 -55 -58 -64 -9 -4 -16 -11 -16 -17 0 -5 -16 -17 -37 -25 -20 -8 -33 -18
-29 -22 3 -4 12 -1 18 5 7 7 16 12 21 12 18 0 -22 -29 -46 -34 -14 -2 -35 -9
-46 -16 -12 -6 -26 -8 -31 -5 -5 3 -12 0 -16 -6 -4 -8 -3 -9 4 -5 16 10 15 -6
0 -24 -7 -7 2 -2 20 13 35 28 59 36 46 15 -4 -7 -3 -8 5 -4 6 4 8 12 5 18 -5
7 -2 8 6 3 10 -6 6 -14 -15 -31 -16 -13 -32 -21 -36 -19 -4 3 -13 -3 -20 -12
-12 -14 -12 -16 1 -9 8 4 -5 -10 -29 -33 -46 -42 -61 -50 -61 -29 0 6 -3 8 -6
5 -4 -4 -1 -13 6 -22 11 -14 7 -19 -12 -16 -5 0 -8 -6 -8 -15 0 -8 -4 -12 -10
-9 -5 3 -10 1 -10 -4 0 -6 -7 -11 -15 -11 -18 0 -20 16 -2 23 9 4 9 6 0 6 -17
1 -26 -18 -15 -32 7 -8 3 -20 -13 -39 -22 -26 -45 -23 -29 4 5 7 3 8 -5 4 -7
-5 -10 -14 -7 -22 3 -7 1 -16 -5 -19 -5 -4 -6 -11 -3 -17 5 -7 2 -8 -5 -4 -7
5 -20 1 -29 -7 -9 -8 -24 -13 -33 -12 -9 2 -16 -4 -16 -11 0 -10 4 -11 10 -5
7 7 14 5 22 -6 11 -15 30 0 152 118 76 74 242 233 368 354 588 562 565 537
565 622 0 60 -36 118 -86 139 -50 21 -1138 19 -1239 -2z m-335 -178 c0 -3 -4
-8 -10 -11 -5 -3 -10 -1 -10 4 0 6 5 11 10 11 6 0 10 -2 10 -4z m610 -1020 c0
-2 -8 -10 -17 -17 -16 -13 -17 -12 -4 4 13 16 21 21 21 13z m-460 -420 c0 -3
-4 -8 -10 -11 -5 -3 -10 -1 -10 4 0 6 5 11 10 11 6 0 10 -2 10 -4z"/>
<path d="M2138 3923 c7 -3 16 -2 19 1 4 3 -2 6 -13 5 -11 0 -14 -3 -6 -6z"/>
<path d="M3395 3901 c-3 -5 -2 -12 3 -15 5 -3 9 1 9 9 0 17 -3 19 -12 6z"/>
<path d="M2965 3389 c-11 -16 -1 -19 13 -3 7 8 8 14 3 14 -5 0 -13 -5 -16 -11z"/>
<path d="M1501 3294 c0 -11 3 -14 6 -6 3 7 2 16 -1 19 -3 4 -6 -2 -5 -13z"/>
<path d="M3093 2957 c-32 -29 -116 -109 -188 -178 -71 -69 -296 -284 -500
-479 -203 -194 -453 -436 -555 -536 -102 -101 -198 -192 -213 -204 -60 -47
-86 -155 -52 -220 8 -16 32 -42 52 -57 l36 -28 566 0 c561 0 567 0 646 23 171
49 295 122 420 247 63 62 135 153 135 170 0 3 12 24 27 48 56 89 107 251 122
391 29 274 -68 554 -256 743 -64 63 -155 133 -174 133 -5 0 -34 -24 -66 -53z
m83 14 c-3 -5 1 -12 10 -15 10 -4 13 -2 9 7 -4 6 3 1 15 -13 12 -14 18 -18 14
-10 -3 8 28 -19 70 -60 42 -41 74 -80 72 -87 -3 -7 1 -10 9 -6 9 3 18 -4 24
-18 5 -13 18 -33 28 -44 11 -11 19 -22 20 -25 0 -3 10 -25 23 -50 13 -25 23
-46 22 -47 -1 -2 8 -23 19 -48 11 -25 17 -50 13 -57 -5 -7 -3 -8 5 -3 9 5 11
-1 8 -24 -4 -21 -2 -29 5 -25 8 5 9 -3 5 -24 -4 -17 -2 -34 4 -37 5 -4 10 -30
10 -58 0 -29 2 -86 4 -127 2 -52 0 -69 -6 -55 -6 14 -8 -2 -5 -48 4 -54 2 -69
-9 -73 -8 -4 -13 -10 -10 -15 8 -11 -27 -139 -36 -133 -4 2 -5 -6 -1 -18 5
-21 4 -22 -11 -9 -19 15 -23 1 -5 -17 9 -9 9 -12 -1 -12 -7 0 -9 -4 -6 -10 3
-5 2 -10 -4 -10 -6 0 -14 -12 -17 -27 -7 -29 -42 -85 -56 -91 -4 -2 -8 -9 -8
-15 0 -7 -12 -26 -27 -42 -16 -16 -27 -33 -26 -37 2 -5 -4 -8 -13 -8 -8 0 -12
-4 -9 -10 3 -5 1 -10 -5 -10 -6 0 -8 -5 -5 -10 4 -6 2 -9 -3 -8 -5 2 -21 -8
-35 -22 -14 -14 -31 -30 -39 -37 -7 -7 -19 -19 -26 -28 -7 -8 -17 -13 -23 -10
-5 4 -9 1 -9 -5 0 -7 -8 -9 -22 -4 -20 6 -21 5 -9 -10 11 -14 10 -22 -3 -13
-2 1 -12 -5 -22 -13 -11 -9 -37 -24 -59 -34 -22 -11 -48 -23 -57 -27 -10 -5
-27 -9 -38 -9 -11 0 -20 -5 -20 -11 0 -5 -5 -7 -10 -4 -6 4 -18 1 -26 -6 -9
-7 -32 -12 -51 -11 -19 2 -41 -2 -49 -9 -8 -7 -29 -9 -49 -6 -20 3 -34 3 -31
-1 2 -4 -214 -7 -480 -7 -266 0 -484 3 -484 6 0 3 -18 4 -40 3 -22 -1 -38 2
-35 6 3 4 -2 11 -11 14 -8 3 -12 2 -9 -4 3 -6 3 -10 -2 -10 -11 0 -40 20 -30
20 4 0 -3 11 -15 25 -18 19 -23 35 -22 72 2 72 3 76 24 101 16 20 23 21 42 12
20 -10 21 -9 7 2 -16 13 -15 15 1 36 10 12 23 22 29 22 6 0 11 6 11 13 0 7 17
29 37 48 23 21 30 24 18 9 l-20 -25 23 19 c12 11 22 26 22 34 0 11 3 12 14 3
17 -14 41 11 32 34 -3 8 0 15 5 15 6 0 29 18 50 40 27 28 44 38 60 35 12 -2
19 -2 15 2 -3 4 2 16 11 27 13 15 10 14 -12 -4 -22 -19 -20 -14 10 20 22 25
43 44 47 43 5 -2 7 0 6 5 -5 14 89 92 104 87 18 -7 32 21 16 31 -14 9 40 32
69 29 14 -1 20 2 16 11 -3 8 -9 12 -13 9 -4 -3 -11 2 -14 11 -3 8 -2 12 4 9 5
-3 16 7 24 22 8 15 15 24 16 20 0 -5 7 -1 16 8 15 15 18 15 37 -2 l20 -18 -19
30 c-18 28 -18 29 0 22 14 -5 17 -4 12 8 -3 8 -2 15 2 15 4 0 36 28 72 62 36
34 59 58 51 53 -10 -5 -12 -4 -7 4 6 9 11 9 24 -1 10 -9 13 -9 9 -1 -9 15 46
80 68 80 8 0 15 -7 16 -16 0 -11 2 -12 6 -3 3 7 1 18 -4 25 -6 8 -1 19 14 34
13 12 23 19 23 15 0 -4 4 -1 9 7 7 11 13 12 23 3 11 -9 14 -6 15 11 2 17 0 19
-7 7 -5 -8 -10 -10 -10 -5 0 6 16 27 35 49 31 34 39 37 37 15 -1 -3 6 -6 13
-6 11 0 12 3 3 14 -9 11 -5 20 19 42 16 15 35 25 41 23 5 -1 14 2 18 9 4 8 3
9 -4 5 -7 -4 -12 -2 -12 3 0 6 5 11 10 11 6 0 21 11 33 26 12 14 31 27 42 29
11 2 21 4 23 4 2 1 0 6 -3 11 -5 8 -12 7 -23 -1 -10 -7 1 4 23 24 22 20 44 36
49 37 12 0 76 70 76 82 0 6 7 7 16 4 8 -3 12 -2 9 4 -3 5 8 19 25 31 16 13 32
31 36 41 3 10 9 16 13 14 4 -3 15 6 25 20 17 22 65 36 52 15z m-235 -194 c-10
-9 -11 -8 -5 6 3 10 9 15 12 12 3 -3 0 -11 -7 -18z m-737 -715 c2 -4 -5 -9
-17 -9 -17 -2 -19 0 -7 7 18 12 18 12 24 2z m-54 -56 c0 -3 -4 -8 -10 -11 -5
-3 -10 -1 -10 4 0 6 5 11 10 11 6 0 10 -2 10 -4z m-329 -319 c-10 -9 -11 -8
-5 6 3 10 9 15 12 12 3 -3 0 -11 -7 -18z"/>
<path d="M3167 2933 c-3 -5 5 -8 18 -8 13 0 21 3 18 8 -2 4 -10 7 -18 7 -8 0
-16 -3 -18 -7z"/>
<path d="M3295 2860 c10 -11 20 -20 23 -20 3 0 -3 9 -13 20 -10 11 -20 20 -23
20 -3 0 3 -9 13 -20z"/>
<path d="M3440 2674 c0 -6 7 -19 16 -30 14 -18 14 -18 3 6 -14 31 -19 36 -19
24z"/>
<path d="M2520 2370 c0 -5 5 -10 11 -10 5 0 7 5 4 10 -3 6 -8 10 -11 10 -2 0
-4 -4 -4 -10z"/>
<path d="M2373 2217 c0 -8 6 -14 14 -14 9 0 10 4 2 14 -6 7 -12 13 -14 13 -1
0 -2 -6 -2 -13z"/>
<path d="M3532 2120 c0 -14 2 -19 5 -12 2 6 2 18 0 25 -3 6 -5 1 -5 -13z"/>
<path d="M2056 1918 c-8 -12 -13 -25 -10 -30 9 -14 33 11 31 33 -2 24 -3 24
-21 -3z m5 -21 c-10 -9 -11 -8 -5 6 3 10 9 15 12 12 3 -3 0 -11 -7 -18z"/>
<path d="M1885 1749 c-4 -6 -4 -13 -1 -16 3 -4 6 -1 6 7 0 10 4 10 18 -1 15
-13 16 -12 3 4 -16 20 -18 20 -26 6z"/>
<path d="M3390 1706 c7 -7 13 -7 20 0 6 6 3 10 -10 10 -13 0 -16 -4 -10 -10z"/>
<path d="M3330 1630 c-9 -6 -10 -10 -3 -10 6 0 15 5 18 10 8 12 4 12 -15 0z"/>
<path d="M1725 1590 c3 -5 8 -10 11 -10 2 0 4 5 4 10 0 6 -5 10 -11 10 -5 0
-7 -4 -4 -10z"/>
<path d="M1623 1496 c-9 -11 -5 -13 23 -12 30 1 32 3 17 14 -21 15 -25 15 -40
-2z"/>
<path d="M3165 1466 c-17 -12 -17 -13 3 -11 26 2 37 11 24 19 -5 3 -17 -1 -27
-8z"/>
<path d="M3050 1390 c0 -6 -4 -9 -8 -6 -5 3 -9 -1 -9 -9 0 -12 3 -12 16 -3 9
7 17 13 19 14 2 1 -1 5 -7 9 -6 3 -11 1 -11 -5z"/>
<path d="M1735 1310 c-16 -7 -17 -9 -3 -9 9 -1 20 4 23 9 7 11 7 11 -20 0z"/>
<path d="M2565 2990 c-3 -6 1 -7 9 -4 18 7 21 14 7 14 -6 0 -13 -4 -16 -10z"/>
<path d="M2413 2833 c4 -3 1 -13 -6 -22 -11 -14 -10 -14 5 -2 16 12 16 31 1
31 -4 0 -3 -3 0 -7z"/>
<path d="M1577 2590 c3 -11 7 -20 9 -20 2 0 4 9 4 20 0 11 -4 20 -9 20 -5 0
-7 -9 -4 -20z"/>
<path d="M1620 2509 c0 -4 7 -12 15 -19 13 -11 14 -10 8 5 -5 15 -3 17 11 12
9 -4 15 -3 11 2 -6 11 -45 10 -45 0z"/>
<path d="M2125 2509 c-4 -6 -13 -8 -21 -5 -7 3 -16 2 -18 -3 -8 -13 28 -9 49
5 11 8 14 14 8 14 -7 0 -15 -5 -18 -11z"/>
</g>
</svg>
